<svg height="512" viewBox="0 0 60 60" width="512" xmlns="http://www.w3.org/2000/svg"><g id="Page-1" fill="none" fill-rule="evenodd"><g id="003---Ghost" fill="#fff" fill-rule="nonzero" transform="translate(-1)"><path id="Shape" d="m19 27c.5522847 0 1-.4477153 1-1-.0048977-.3216565-.16703-.6205178-.434-.8.9460028-1.1938537 1.452353-2.6768878 1.434-4.2 0-3.309-2.243-6-5-6s-5 2.691-5 6c-.018353 1.5231122.4879972 3.0061463 1.434 4.2-.26697.1794822-.4291023.4783435-.434.8 0 .5522847.4477153 1 1 1zm-3-10c1.654 0 3 1.794 3 4s-1.346 4-3 4-3-1.794-3-4 1.346-4 3-4z"/><path id="Shape" d="m26 26c0 .5522847.4477153 1 1 1h6c.5522847 0 1-.4477153 1-1-.0048977-.3216565-.16703-.6205178-.434-.8.9460028-1.1938537 1.452353-2.6768878 1.434-4.2 0-3.309-2.243-6-5-6s-5 2.691-5 6c-.018353 1.5231122.4879972 3.0061463 1.434 4.2-.26697.1794822-.4291023.4783435-.434.8zm4-9c1.654 0 3 1.794 3 4s-1.346 4-3 4-3-1.794-3-4 1.346-4 3-4z"/><path id="Shape" d="m18 33c0 2.7614237 2.2385763 5 5 5s5-2.2385763 5-5-2.2385763-5-5-5c-2.7600532.0033061-4.9966939 2.2399468-5 5zm5-3c1.6568542 0 3 1.3431458 3 3s-1.3431458 3-3 3-3-1.3431458-3-3 1.3431458-3 3-3z"/><path id="Shape" d="m33.222 33.536c.3904999.3903819 1.0235001.3903819 1.414 0l4.95-4.95c.791167-.755814 2.036833-.755814 2.828 0 .7807639.7809997.7807639 2.0470003 0 2.828l-4.95 4.95c-.2599566.2510745-.3642126.6228779-.2726972.9725073.0915155.3496295.3645604.6226744.7141899.7141899.3496294.0915154.7214328-.0127406.9725073-.2726972l4.95-4.95c1.5615278-1.5619994 1.5615278-4.0940006 0-5.656-1.5821292-1.5121388-4.0738708-1.5121388-5.656 0l-4.95 4.95c-.3903819.3904999-.3903819 1.0235001 0 1.414z"/><path id="Shape" d="m5.025 35.717c.42651815 13.4995824 11.4687636 24.2358725 24.975 24.283h19.83c2.1652246.0181996 3.9807235-1.6309874 4.17-3.788.0423947-.7732025-.1418032-1.5419682-.53-2.212h2.53c1.4105728-.0000915 2.7554835-.5959974 3.7031615-1.6408047.9476779-1.0448073 1.4099462-2.4413017 1.2728385-3.8451953-.282476-2.3647509-2.1602012-4.2213269-4.528-4.477.4038262-.6790821.5960123-1.4631457.552-2.252-.1907473-2.1558238-2.0058316-3.8033284-4.17-3.785h-.83c-1.6568542 0-3-1.3431458-3-3v-13c-.0000002-12.15026437-9.8497356-21.99999967-22-21.99999967s-21.99999982 9.8497353-22 21.99999967v4.041c-1.6199116-.0264017-3.09342582.9339381-3.723307 2.4266069-.62988119 1.4926689-.28980688 3.2183126.859307 4.3603931zm-1.475-7.131c.79150327-.7559402 2.03749673-.7559402 2.829 0l4.95 4.95c.2510745.2599566.6228779.3642126.9725073.2726972.3496295-.0915155.6226744-.3645604.7141899-.7141899.0915154-.3496294-.0127406-.7214328-.2726972-.9725073l-4.95-4.95c-.2368888-.2302544-.50360173-.4276825-.793-.587v-4.585c0-11.045695 8.954305-20 20-20s20 8.954305 20 20v13c.0033061 2.7600532 2.2399468 4.9966939 5 5h.83c1.1050963-.0290741 2.0482444.7932467 2.17 1.892.0296837.5488851-.1678515 1.0857918-.5461896 1.4845601-.3783381.3987684-.9041238.624242-1.4538104.6234399-.5522847 0-1 .4477153-1 1s.4477153 1 1 1h2.83c1.5866513-.03174 2.9441802 1.132963 3.154 2.706.087683.8435021-.1896462 1.6842243-.762 2.31-.5693874.6258033-1.3759323.982977-2.222.984h-6c-.5522847 0-1 .4477153-1 1s.4477153 1 1 1c.5482225-.0006857 1.0726927.2236991 1.4507775.6206881s.5766341.9317747.5492225 1.4793119c-.1179019 1.1019377-1.0621443 1.9286937-2.17 1.9h-19.83c-11.5836604-.0428123-21.34178122-8.6639401-22.812-20.154.4124473.3284597 1.0098661.2764593 1.35936134-.1183211.34949525-.3947805.32868065-.9940968-.04736134-1.3636789l-4.95-4.95c-.78076388-.7809997-.78076388-2.0470003 0-2.828z"/></g></g></svg>