<svg width="60" height="60" viewBox="0 0 60 60" fill="none" xmlns="http://www.w3.org/2000/svg">
<path d="M57.3063 23.9462L48.8498 28.3474C48.6089 27.4256 47.7971 26.8778 46.5356 26.8188C45.1157 26.7525 44.0789 26.4412 43.9374 26.397C43.68 26.2938 40.6457 25.0485 39.7312 23.3464C39.0165 21.9713 38.3023 20.208 37.9515 19.3099C39.2017 18.7125 40.6854 17.5102 40.0742 15.8688C39.9284 15.477 40.0196 15.2844 40.1012 15.1738C40.4623 14.6827 41.6807 14.47 42.2128 14.4439C42.4426 14.4335 42.6539 14.3252 42.7843 14.1511C42.9149 13.9771 42.9492 13.7571 42.8779 13.5562C42.0223 11.1526 39.7577 10.4796 38.4001 10.4361L38.142 10.1692C40.226 8.78063 42.3891 6.69527 43.1904 3.75105C43.2608 3.49277 43.16 3.22078 42.9327 3.05543C42.7055 2.89008 42.3942 2.86242 42.1364 2.98418L35.984 5.895C34.4564 4.56105 28.7839 0 22.6432 0C18.6747 0 15.3419 1.89012 12.7366 5.61809C12.554 5.87941 12.5881 6.22137 12.8194 6.44789C13.0508 6.67441 13.4199 6.72762 13.7157 6.57703C13.7409 6.56426 16.2572 5.29922 19.0049 5.29922C22.128 5.29922 24.2502 6.94594 25.3212 10.1943L19.5058 12.364C19.295 12.4426 19.1355 12.6062 19.0735 12.8073C19.0115 13.0084 19.0539 13.2245 19.1884 13.3929C19.2992 13.5318 19.838 14.1087 21.3037 14.4136C20.3873 15.5145 19.1783 17.5477 19.0461 20.7111C19.0348 20.9777 19.1954 21.2257 19.4556 21.3443C19.7163 21.4628 20.0279 21.4301 20.2523 21.2605C20.623 20.9805 21.5551 20.3882 22.5804 20.0353C22.2106 20.9966 21.988 22.4057 22.665 24.1051C22.7731 24.3764 23.053 24.5502 23.3576 24.5502C23.4047 24.5502 23.4526 24.546 23.5 24.5374C23.5349 24.5312 24.0717 24.4337 24.8695 24.2541C23.866 26.2935 23.0045 29.2741 23.2633 33.3169C23.4639 36.4504 24.5973 38.8857 25.9709 40.723L21.2991 43.2207L20.6946 42.2456C20.5824 42.0648 20.3861 41.9412 20.162 41.9105C19.9377 41.8801 19.7108 41.9454 19.546 42.0884C19.546 42.0884 17.4071 43.9482 17.4014 43.9538L16.0281 44.6716C9.97533 43.4842 0.858911 47.9834 0.847044 47.9896C0.286088 48.2828 -0.288138 49.0359 0.161418 50.9595C0.454401 52.213 1.12178 53.7196 2.04041 55.2015L2.04067 55.2019C3.5713 57.6714 5.78437 60 7.45448 60C7.71173 60 7.95622 59.9447 8.18336 59.826C8.19536 59.8198 8.20697 59.8132 8.21845 59.8063C8.60344 59.5781 17.487 54.268 19.041 49.532L20.412 48.8152C20.4208 48.8132 23.2558 48.0728 23.2558 48.0728C23.4739 48.0157 23.6511 47.8698 23.7369 47.6771C23.8225 47.4845 23.8072 47.2663 23.6951 47.0855L23.0835 46.099L28.3854 43.2653C28.4777 43.3427 28.5696 43.4186 28.6603 43.4916C31.1241 45.4686 33.4972 46.2404 33.597 46.2723C33.6753 46.2974 33.7574 46.3098 33.8396 46.3098C33.9196 46.3098 33.9996 46.2979 34.0764 46.2741C36.927 45.3874 39.3322 44.3358 41.3522 43.236L49.8187 43.8639C50.3437 44.6059 51.4404 45.453 53.1542 45.4529C53.7633 45.4529 54.4507 45.3458 55.2179 45.0889C55.4199 45.0213 55.5796 44.8761 55.6557 44.6913L56.4244 42.8196C56.4747 42.697 56.4853 42.5638 56.4548 42.4358C56.4021 42.2137 56.2831 42.0383 56.1378 41.8978C56.6097 41.7666 57.0725 41.6142 57.3627 41.3175C58.4417 40.2141 58.9297 39.0125 58.8124 37.7466C58.6589 36.0892 57.4571 34.6652 56.3838 33.885C56.1526 33.717 55.8342 33.6914 55.5744 33.8204C55.3149 33.9495 55.164 34.2082 55.1907 34.4782C55.1926 34.4966 55.3442 36.3607 54.2548 37.5462C53.7259 38.1219 52.9663 38.4611 51.9953 38.5556L48.7512 37.5935C50.1187 36.0977 50.7053 35.0312 50.7656 34.9186C50.872 34.7195 50.8655 34.4852 50.7484 34.2912C50.6311 34.0972 50.4181 33.9682 50.178 33.9457C49.172 33.8515 48.2322 33.5271 47.4038 33.1144L59.0893 26.825C59.9535 26.373 60.256 25.3598 59.7642 24.5667C59.2726 23.7735 58.169 23.4954 57.3063 23.9462ZM44.4084 27.9172C44.934 28.0249 45.6381 28.1345 46.4605 28.1729C47.383 28.2161 47.4543 28.564 47.4497 28.9896C47.4499 29.0053 47.2833 30.4215 43.8856 31.0598C44.1202 30.3202 44.3646 29.2495 44.4084 27.9172ZM41.104 13.2272C40.355 13.3835 39.3955 13.7145 38.8804 14.4117C38.6791 14.6841 38.4881 15.0947 38.5279 15.6428C37.6418 15.8863 36.397 16.0604 36.1155 15.527C35.9378 15.1902 35.4964 15.0495 35.1295 15.2128C34.7626 15.3761 34.6095 15.7815 34.7874 16.1183C35.2417 16.9788 36.1439 17.2334 37.0524 17.2334C37.6052 17.2334 38.1586 17.1391 38.6158 17.0302C38.2541 17.6994 37.1539 18.1645 36.8539 18.2811L32.213 18.678C30.636 15.8739 32.1511 13.3755 32.6038 12.7346C32.8919 12.6381 33.186 12.5372 33.4865 12.4313C33.7068 12.3635 35.1632 11.8976 36.9007 10.9269L37.5198 11.5672C37.6713 11.7239 37.8923 11.8068 38.1215 11.7935C38.2125 11.7878 40.0876 11.6923 41.104 13.2272ZM34.5286 6.51223L31.7184 7.64133L29.5847 5.03484L31.1268 4.11105C32.6082 5.00215 33.8002 5.91375 34.5286 6.51223ZM30.3285 8.19973L26.6884 9.66234C26.3899 8.78953 26.0285 8.0441 25.6217 7.40836L28.3454 5.77711L30.3285 8.19973ZM24.7703 6.29953C23.0529 4.4332 20.8449 3.94371 19.0047 3.94371C17.7454 3.94371 16.5449 4.16918 15.5526 4.44234C17.5707 2.39191 19.9471 1.35574 22.6432 1.35574C25.1569 1.35574 27.6383 2.24496 29.7305 3.32906L24.7703 6.29953ZM26.5051 11.2154C26.5051 11.2154 36.182 7.32633 36.1862 7.32434L41.1479 4.97684C38.8941 9.31242 33.6508 10.8461 33.0069 11.1492C32.363 11.4524 24.4564 13.5593 21.5382 13.0691C21.5382 13.0691 26.5023 11.2167 26.5051 11.2154ZM23.8641 23.0788C23.2878 20.9496 24.4706 19.5695 24.5228 19.5102C24.7079 19.3052 24.7453 19.0199 24.6185 18.7805C24.4917 18.5411 24.2216 18.3926 23.9339 18.3998C22.7327 18.4312 21.5372 18.9165 20.6628 19.3775C21.1369 16.5226 22.5829 15.0394 23.0834 14.6013C23.1783 14.6036 23.2751 14.6046 23.3742 14.6046C25.0702 14.6046 27.4108 14.2932 30.6134 13.3598C29.9802 14.837 29.5183 17.1757 31.1302 19.6836C30.954 20.2664 28.6682 21.8606 26.089 22.5512C25.2 22.7892 24.3945 22.9683 23.8641 23.0788ZM7.45448 58.6454C7.29803 58.6731 6.92249 58.5166 6.41066 58.1353C8.41943 57.045 13.2677 54.1816 15.5004 50.8438C15.7138 50.5248 15.605 50.1074 15.2577 49.9116C14.9102 49.7155 14.4557 49.8153 14.2423 50.1343C12.0679 53.3851 6.93244 56.29 5.31567 57.1506C4.81482 56.6277 4.26356 55.956 3.69916 55.1143L14.3026 49.5714C14.6567 49.3862 14.7805 48.9723 14.579 48.647C14.3774 48.3218 13.9265 48.2078 13.5724 48.3932L2.96951 53.936C2.46968 53.0604 2.12195 52.2821 1.88754 51.6199C3.51822 50.783 8.86044 48.2105 13.015 48.1532C13.4226 48.1474 13.7481 47.8395 13.7419 47.4652C13.7356 47.0907 13.3994 46.7865 12.9928 46.7977C8.72543 46.8566 3.56696 49.225 1.52259 50.2536C1.42459 49.6496 1.46976 49.2731 1.57452 49.1706C2.19431 48.8923 11.0878 44.9555 15.6391 45.9792L17.6184 49.1725C16.2575 53.2724 8.074 58.2721 7.45448 58.6454ZM18.6876 48.157L17.1352 45.6527L17.6626 45.377L19.215 47.8814L18.6876 48.157ZM20.591 47.3607L18.8529 44.5562L19.8774 43.6666L20.6924 44.9816C20.6928 44.9824 20.6932 44.9832 20.6936 44.9841L21.9469 47.006L20.591 47.3607ZM22.3537 44.9211L22.03 44.3988L26.8696 41.8113C27.0149 41.9712 27.1614 42.1252 27.308 42.2735L22.3537 44.9211ZM43.398 42.028C45.1854 40.8825 46.5892 39.7311 47.67 38.6978L48.4933 38.9419L46.2113 42.2367L43.398 42.028ZM52.4437 39.8688C53.669 39.6971 54.6565 39.2119 55.3833 38.421C56.0719 37.6716 56.3996 36.7747 56.5517 36.0139C56.9592 36.5482 57.2792 37.1871 57.3416 37.862C57.4227 38.7366 57.0637 39.591 56.2747 40.4019C56.1611 40.4791 55.7608 40.5877 55.5199 40.6528C54.9896 40.7965 54.4887 40.9322 54.1936 41.2501C54.013 41.4445 53.9393 41.6923 53.9908 41.9303C54.0807 42.3445 54.4699 42.5268 54.754 42.6599C54.7919 42.6777 54.8397 42.7 54.8866 42.7233L54.3981 43.9126C52.3626 44.4817 51.4178 43.6054 51.0854 43.1602L52.4437 39.8688ZM49.9443 39.3723L50.947 39.6697L49.7782 42.5012L47.8751 42.3601L49.9443 39.3723ZM48.9185 35.1142C47.5369 37.023 43.2341 41.9307 33.8558 44.9109C32.4752 44.3891 25.2527 41.2798 24.7374 33.2372C24.4458 28.6802 25.6584 25.6029 26.7889 23.7711C29.1087 23.0856 31.9381 21.4991 32.5001 20.1785C32.5239 20.1223 32.5433 20.066 32.5595 20.0099L36.5239 19.6709C36.8678 20.558 37.6222 22.4358 38.4034 23.9384C39.3682 25.7343 41.9059 27.0073 42.9395 27.4666C42.943 29.3351 42.4933 30.6866 42.2517 31.2766C39.2754 31.5059 36.6411 30.6923 34.4157 28.8557C32.648 27.3969 31.8079 25.8033 31.7961 25.7807C31.6218 25.4427 31.1823 25.2982 30.8141 25.4579C30.4455 25.6177 30.2878 26.0216 30.4614 26.3602C30.4993 26.4339 31.4115 28.1839 33.3841 29.8269C35.0013 31.1739 37.6256 32.7043 41.3063 32.6687C42.3657 32.6584 43.5897 32.4921 43.9249 32.4346C44.9756 33.3439 46.7501 34.6132 48.9185 35.1142ZM58.3511 25.6516L46.0185 32.2891C45.8894 32.1994 45.7642 32.1095 45.6458 32.0205C47.3469 31.4685 48.1655 30.6875 48.5597 30.0566L58.0352 25.1251C58.1921 25.0433 58.3921 25.0937 58.4815 25.2379C58.571 25.3816 58.5159 25.5656 58.3511 25.6516Z" fill="#FFECEC"/>
</svg>
